HIERARCHY
ROOT Hips
{
  OFFSET -35.4901 99.2528 17.4586
  CHANNELS 6 Xposition Yposition Zposition Zrotation Xrotation Yrotation
  JOINT LeftUpLeg
  {
    OFFSET 8.64259 1.95398 -2.38835
    CHANNELS 3 Zrotation Xrotation Yrotation
    JOINT LeftLeg
    {
      OFFSET 43.7702 0 0
      CHANNELS 3 Zrotation Xrotation Yrotation
      JOINT LeftFoot
      {
        OFFSET 40.6238 0 0
        CHANNELS 3 Zrotation Xrotation Yrotation
        JOINT LeftToeBase
        {
          OFFSET 12.7242 0 0
          CHANNELS 3 Zrotation Xrotation Yrotation
          End Site
          {
            OFFSET 0 0 0
          }
        }
      }
    }
  }
  JOINT RightUpLeg
  {
    OFFSET -8.2249 1.95398 -2.59336
    CHANNELS 3 Zrotation Xrotation Yrotation
    JOINT RightLeg
    {
      OFFSET 43.5653 0 0
      CHANNELS 3 Zrotation Xrotation Yrotation
      JOINT RightFoot
      {
        OFFSET 40.6238 0 0
        CHANNELS 3 Zrotation Xrotation Yrotation
        JOINT RightToeBase
        {
          OFFSET 12.7242 0 0
          CHANNELS 3 Zrotation Xrotation Yrotation
          End Site
          {
            OFFSET 0 0 0
          }
        }
      }
    }
  }
  JOINT Spine
  {
    OFFSET 0.165834 0.87714 6.61349
    CHANNELS 3 Zrotation Xrotation Yrotation
    JOINT Spine1
    {
      OFFSET 7.38963 1.71661e-005 0
      CHANNELS 3 Zrotation Xrotation Yrotation
      JOINT Spine2
      {
        OFFSET 11.9445 1.14441e-005 0
        CHANNELS 3 Zrotation Xrotation Yrotation
        JOINT Spine3
        {
          OFFSET 14.7254 4.19617e-005 0
          CHANNELS 3 Zrotation Xrotation Yrotation
          JOINT Spine4
          {
            OFFSET 10.9679 0 0
            CHANNELS 3 Zrotation Xrotation Yrotation
            JOINT RightShoulder
            {
              OFFSET 2.46616 -1.6653 3.69651
              CHANNELS 3 Zrotation Xrotation Yrotation
              JOINT RightArm
              {
                OFFSET 13.0012 0 0
                CHANNELS 3 Zrotation Xrotation Yrotation
                JOINT RightForeArm
                {
                  OFFSET 28.7848 1.52588e-005 0
                  CHANNELS 3 Zrotation Xrotation Yrotation
                  JOINT RightHand
                  {
                    OFFSET 26.5688 1.52588e-005 0
                    CHANNELS 3 Zrotation Xrotation Yrotation
                    End Site
                    {
                      OFFSET 0 0 0
                    }
                  }
                }
              }
            }
            JOINT LeftShoulder
            {
              OFFSET 2.38034 -1.29275 -3.7523
              CHANNELS 3 Zrotation Xrotation Yrotation
              JOINT LeftArm
              {
                OFFSET 16.3182 6.10351e-005 0
                CHANNELS 3 Zrotation Xrotation Yrotation
                JOINT LeftForeArm
                {
                  OFFSET 27.0901 0 0
                  CHANNELS 3 Zrotation Xrotation Yrotation
                  JOINT LeftHand
                  {
                    OFFSET 24.5451 1.52588e-005 0
                    CHANNELS 3 Zrotation Xrotation Yrotation
                    End Site
                    {
                      OFFSET 0 0 0
                    }
                  }
                }
              }
            }
            JOINT Neck
            {
              OFFSET 5.0226 -0.0266342 0
              CHANNELS 3 Zrotation Xrotation Yrotation
              JOINT Head
              {
                OFFSET 6.69364 2.86102e-005 0
                CHANNELS 3 Zrotation Xrotation Yrotation
                End Site
                {
                  OFFSET 0 0 0
                }
              }
            }
          }
        }
      }
    }
  }
}
MOTION
Frames:	15
Frame Time:	0.0416667
-119.394 12.9501 118.236 -15.1992 -2.89377 -92.1513 -170.963 -8.57513 97.7065 -23.9685 -0.061137 -1.60195 72.2627 5.38748 -4.94425 21.4802 -3.30341 5.48071 158.764 -7.74691 72.0649 -22.4536 -12.5478 0.823272 72.1448 -4.99849 5.26607 34.2829 -0.430741 0.420981 -0.753681 7.95445 -89.2323 10.9709 -1.14486 1.6365 -0.700583 -1.07174 1.68526 -23.2347 -1.58374 1.21681 -3.22203 -1.58373 1.21679 83.7439 -20.6515 -124.798 1.59125 44.9012 23.6294 -58.1615 20.8178 -130.586 -41.5266 -14.6208 32.1901 -89.0936 -33.4886 76.1096 8.61895 -39.4153 32.5662 31.7082 -43.278 -142.306 21.8428 4.17802 15.3396 58.1554 0.515991 -9.43682 -20.3897 5.78985 6.21804 
-119.233 13.5076 117.898 -14.1895 -0.889089 -92.7603 -171.106 -8.30683 96.5859 -22.9175 -0.800472 -2.23409 71.9153 5.54149 -3.76782 21.3386 -3.21204 5.34354 160.066 -4.56762 72.423 -25.4026 -15.2236 0.0675252 72.3462 -5.45801 1.63087 35.4432 -0.689794 1.07766 -0.648699 7.82085 -89.0359 11.2353 -0.842498 2.00296 -0.436954 -0.753533 2.03808 -22.9652 -1.40544 1.65731 -2.95251 -1.40542 1.65731 83.0802 -21.811 -125.364 1.67626 44.4581 22.6207 -58.8498 20.3596 -131.268 -42.2854 -15.7144 34.4396 -86.7765 -30.1972 79.5394 -0.40737 -35.5035 28.2855 35.4767 -47.3273 -139.739 24.2826 4.83724 16.2198 57.5803 -1.14211 -13.1158 -20.5064 6.11773 9.47517 
-119.268 13.415 118.003 -14.2062 -1.20878 -92.9532 -171.286 -8.38067 96.3894 -22.7835 -0.366086 -2.13271 71.6504 5.46243 -3.36953 21.3299 -2.72513 4.6279 159.702 -4.7003 72.0727 -25.1055 -15.1147 0.208745 72.3211 -5.39858 2.04521 36.0283 -0.604511 0.715371 -0.670828 7.79955 -89.0288 11.2788 -0.882683 2.0213 -0.393497 -0.792895 2.05815 -22.9219 -1.44928 1.66273 -2.9092 -1.44929 1.6627 83.4927 -21.2759 -124.882 3.82637 43.9253 21.6386 -59.6215 21.3539 -130.318 -41.8803 -15.4135 34.003 -87.279 -30.3222 78.6127 0.862294 -35.3988 29.5595 35.3461 -46.8501 -139.9 25.5177 5.22841 16.8219 57.2556 -1.08957 -13.175 -20.3254 6.19589 9.37301 
-119.274 13.4065 118.024 -14.1635 -1.28357 -92.9046 -171.32 -8.22204 96.4461 -22.9733 -0.77379 -2.11617 71.6366 5.39099 -4.04979 21.6402 -2.91739 4.9124 159.639 -4.69856 72.0578 -24.951 -15.4331 0.268165 72.2229 -5.37071 1.97356 35.4694 -0.566106 0.672841 -0.634329 7.77086 -89.0482 11.3356 -0.818571 1.97714 -0.336636 -0.730789 2.01121 -22.8649 -1.37488 1.63987 -2.8523 -1.37485 1.63985 84.2026 -20.782 -123.719 6.68496 42.5136 20.15 -61.2766 22.9618 -128.558 -41.3929 -15.243 34.0003 -87.5983 -30.5751 78.0706 1.13336 -35.2536 29.6644 36.1403 -47.2657 -139.346 25.9604 5.44161 17.3002 56.921 -1.19897 -13.502 -20.3511 6.10399 10.298 
-119.281 13.3661 118.129 -14.1833 -1.45289 -93.0184 -171.516 -8.38233 96.1916 -22.8101 -0.702939 -2.01186 71.6952 5.44214 -3.78045 21.3133 -2.88367 4.86084 159.329 -4.62919 71.7661 -24.9439 -15.7498 0.406812 72.0266 -5.31907 1.66686 37.611 -0.731669 0.907834 -0.64874 7.77301 -89.069 11.3316 -0.857007 1.93962 -0.340552 -0.770822 1.97544 -22.8695 -1.40025 1.5925 -2.8569 -1.40025 1.59252 84.2671 -20.5274 -123.762 6.88955 42.2786 20.2232 -62.3533 24.04 -127.629 -41.7445 -15.4836 34.1207 -87.7849 -31.1787 77.8835 1.66142 -35.5386 29.6677 36.7621 -47.7454 -139.033 26.1663 5.6214 17.8242 57.2898 -0.817379 -12.4685 -20.4462 5.9997 9.16833 
-119.257 13.3191 118.177 -14.1806 -1.66736 -92.9321 -171.599 -8.28912 96.2352 -22.9662 -0.620113 -1.87822 71.8755 5.50489 -3.78992 21.6873 -3.17761 5.29739 159.249 -4.89704 71.8257 -24.6705 -15.3606 0.485603 72.2906 -5.41071 1.892 37.0559 -0.706208 0.90347 -0.63741 7.76704 -89.1107 11.3388 -0.853797 1.85679 -0.333202 -0.771238 1.89257 -22.863 -1.37231 1.51447 -2.8503 -1.3723 1.51445 84.6207 -20.3177 -123.146 7.94686 41.0251 19.7003 -64.235 25.2531 -125.847 -42.1001 -15.7204 34.2196 -87.9321 -31.4915 77.6925 1.45007 -35.4931 29.2745 37.9198 -48.5252 -138.255 26.2866 5.76049 18.2536 57.3216 -0.61373 -12.0466 -20.4948 5.91279 9.10624 
-119.269 13.3699 118.1 -14.1845 -1.36031 -93.0157 -171.487 -8.34892 96.2103 -22.8461 -0.347317 -2.00276 71.5686 5.41927 -3.55016 21.7951 -2.96219 4.98066 159.458 -4.67312 71.8483 -24.9727 -15.4004 0.31198 72.3221 -5.40138 2.03604 37.1774 -0.59836 0.512928 -0.566639 7.77028 -89.1245 11.336 -0.719462 1.81535 -0.336035 -0.638883 1.84524 -22.8652 -1.23173 1.5153 -2.85256 -1.23174 1.51529 84.9715 -20.2834 -122.404 9.04559 39.661 19.0717 -66.3074 26.7463 -123.723 -42.6364 -15.893 33.8905 -88.1341 -31.7382 77.3821 0.621155 -34.7648 28.7989 39.4656 -49.631 -137.095 26.3152 5.82494 18.4551 56.8762 -0.626852 -12.0544 -20.0868 5.75972 9.7916 
-119.275 13.3667 118.099 -14.2177 -1.49683 -93.0409 -171.435 -8.32324 96.2737 -22.8892 -0.259662 -2.01989 71.6569 5.44674 -3.48927 21.1918 -2.43143 4.19712 159.342 -4.73449 71.7929 -24.8963 -15.5145 0.38904 72.1921 -5.37721 1.79985 37.3075 -0.638063 0.629421 -0.550978 7.78458 -89.1756 11.3073 -0.712303 1.71244 -0.364608 -0.636282 1.74211 -22.8946 -1.194 1.4193 -2.88199 -1.194 1.41928 85.5198 -19.6154 -121.665 10.6138 38.1329 18.3945 -68.7033 28.0042 -121.287 -43.247 -16.0723 33.4886 -88.3447 -32.2294 77.1275 0.842683 -35.2283 28.5459 40.2849 -49.9568 -136.655 27.1206 6.17957 19.1402 57.1473 -0.103282 -10.7825 -20.0161 5.5826 8.86912 
-119.27 13.3754 118.047 -14.1058 -1.36363 -92.9441 -171.367 -8.34522 96.3653 -22.6755 -0.245771 -2.02953 71.7383 5.49309 -3.5976 21.1608 -2.81094 4.75366 159.544 -4.66477 72.0054 -24.9819 -15.5593 0.322009 72.3302 -5.4531 1.64842 36.9962 -0.678991 0.819173 -0.496113 7.76653 -89.217 11.3427 -0.622222 1.62146 -0.329183 -0.550249 1.64726 -22.8594 -1.08072 1.35958 -2.84678 -1.08071 1.35958 85.919 -19.2819 -121.006 11.9709 36.596 17.855 -70.9469 29.5502 -118.66 -43.4913 -15.9596 32.7238 -88.5685 -32.5896 76.8148 0.54165 -35.2631 27.9385 41.1705 -50.4848 -136.013 27.0236 6.21296 19.339 57.0894 0.140015 -10.0741 -19.8806 5.39751 8.50209 
-119.275 13.3474 118.073 -14.1263 -1.47401 -93.009 -171.507 -8.28129 96.2338 -22.8831 -0.346298 -1.9622 71.6458 5.45458 -3.45524 21.7732 -3.07124 5.14045 159.423 -4.76029 71.9071 -24.8477 -15.2841 0.368214 72.4781 -5.49434 1.83369 36.7036 -0.667154 0.823295 -0.47787 7.77883 -89.2452 11.3216 -0.599146 1.56253 -0.350223 -0.529824 1.58737 -22.8808 -1.04103 1.3103 -2.86814 -1.04103 1.31029 86.2838 -18.9742 -120.397 12.899 35.5285 17.4829 -72.9998 30.5248 -116.594 -43.8382 -15.9069 32.0194 -88.7387 -32.7098 76.535 -0.663874 -34.9038 27.4621 42.158 -51.2352 -135.118 26.0167 5.80965 18.6615 57.2833 0.369202 -9.43309 -19.9455 5.25613 8.12885 
-119.265 13.3622 118.085 -14.118 -1.43308 -93.0519 -171.527 -8.34878 96.1702 -22.7348 -0.41257 -1.97411 71.5999 5.45159 -3.46756 21.8467 -2.87519 4.85037 159.454 -4.65757 71.876 -25.0133 -15.1012 0.340431 72.5673 -5.5027 2.00964 36.8467 -0.675154 0.828548 -0.427362 7.78204 -89.2852 11.3208 -0.517369 1.47392 -0.350961 -0.452027 1.49524 -22.8818 -0.936408 1.25031 -2.86915 -0.936405 1.25034 86.9174 -18.5694 -119.232 14.6996 33.5492 16.4831 -75.2843 31.5264 -113.726 -45.1379 -16.0693 30.9 -88.9668 -32.9261 76.1772 -0.692674 -35.014 27.0694 42.1461 -50.8719 -135.197 27.1779 6.20133 19.1704 57.3131 0.585344 -8.81675 -19.8675 5.05434 8.08201 
-119.263 13.3399 118.149 -14.1649 -1.53111 -93.0556 -171.546 -8.41271 96.1385 -22.6835 -0.244614 -1.95418 71.6246 5.47968 -3.24085 21.403 -2.44449 4.21609 159.306 -4.70251 71.7692 -24.953 -15.1931 0.425939 72.4152 -5.42741 2.06813 37.0981 -0.630046 0.635136 -0.39817 7.77423 -89.3255 11.3261 -0.477946 1.39084 -0.345511 -0.416282 1.41051 -22.8768 -0.873813 1.18294 -2.86412 -0.873843 1.18293 87.2391 -18.4676 -118.561 15.4321 32.98 15.8777 -76.477 31.9675 -112.327 -46.2789 -15.9725 29.3369 -89.2308 -33.1763 75.7669 -1.18807 -34.4756 26.7 41.8513 -50.3488 -135.148 26.8827 5.99467 18.6464 56.9412 0.593749 -8.40802 -19.735 4.73624 8.25935 
-119.241 13.38 118.116 -14.1912 -1.3959 -93.0009 -171.427 -8.46261 96.2317 -22.608 -0.039737 -2.01186 71.665 5.50734 -3.02481 21.6642 -2.73031 4.63512 159.392 -4.63677 71.8574 -25.0802 -15.0548 0.402859 72.4648 -5.45217 2.06 36.9723 -0.700385 0.896204 -0.356414 7.77043 -89.3791 11.3337 -0.419733 1.27838 -0.337795 -0.363073 1.29561 -22.8696 -0.784542 1.09316 -2.8569 -0.784515 1.09316 87.3653 -18.3101 -118.375 15.5713 33.3361 15.4918 -76.9165 32.5499 -111.892 -45.8753 -15.2472 27.7576 -89.5412 -33.5968 75.3262 -1.14984 -34.3463 26.7711 40.7682 -49.6364 -135.766 26.2371 5.63872 17.8339 56.8574 0.743594 -7.78173 -19.8099 4.49142 7.98456 
-119.201 13.3554 118.119 -14.2554 -1.19921 -92.9636 -171.481 -8.60194 96.2027 -22.686 -0.479102 -1.95564 71.9669 5.61738 -3.46624 21.8015 -3.32767 5.52203 159.466 -4.60379 71.8666 -25.2886 -14.9268 0.369661 72.5548 -5.45478 2.13649 37.3031 -0.634776 0.619108 -0.308018 7.77463 -89.44 11.3251 -0.352023 1.15018 -0.346311 -0.301032 1.16456 -22.8786 -0.681412 0.991245 -2.866 -0.681373 0.991263 87.7951 -18.0242 -117.566 16.1609 32.5301 14.29 -77.0488 32.9823 -110.988 -46.3305 -14.8236 26.226 -89.8465 -33.7604 74.8217 -1.31933 -34.105 26.8515 39.2 -48.6572 -136.718 25.5624 5.26234 16.9079 57.6634 0.87778 -6.7801 -20.5173 4.15373 6.85352 
-119.145 13.3363 118.121 -14.51 -0.838236 -92.8459 -171.277 -8.97305 96.3841 -22.5731 -0.0831738 -1.98971 71.9994 5.67434 -3.01439 22.0034 -2.9935 5.02369 159.572 -4.71378 71.8565 -25.5003 -15.0028 0.235746 72.7413 -5.49731 2.37288 37.3332 -0.758819 1.04415 -0.234779 7.80288 -89.5209 11.2682 -0.244165 0.978308 -0.403159 -0.200865 0.988104 -22.9361 -0.526876 0.85972 -2.92345 -0.526885 0.859723 88.0209 -18.055 -117.019 15.4146 33.7671 13.2306 -75.033 32.9581 -112.417 -45.1286 -13.4811 23.894 -89.8428 -33.7363 74.8211 -2.72584 -33.1948 25.9453 38.5948 -47.4482 -136.513 25.3064 4.8183 15.3785 58.1655 0.9732 -6.31673 -20.7986 3.918 6.98333 
